<svg width="30" height="34" viewBox="0 0 30 34" fill="none" xmlns="http://www.w3.org/2000/svg">
<path fill-rule="evenodd" clip-rule="evenodd" d="M27.9429 6.78329L17.0571 0.487605C16.424 0.169609 15.726 0.00276262 15.0179 0H14.9821C14.274 0.00276262 13.576 0.169609 12.9429 0.487605L2.05706 6.78329C1.45955 7.17311 0.962063 7.69815 0.604688 8.31601C0.24736 8.93387 0.0402187 9.6272 0 10.34V22.9313C0.0394687 23.6456 0.246235 24.3407 0.603563 24.9602C0.960891 25.5798 1.4588 26.1065 2.05706 26.4979L12.9429 32.7937C13.3468 32.9965 13.777 33.1378 14.2195 33.2143H15.7805C16.223 33.1378 16.6533 32.9965 17.0571 32.7937L27.9429 26.4979C28.5412 26.1065 29.0391 25.5798 29.3964 24.9602C29.7538 24.3407 29.9605 23.6456 30 22.9313V10.34C29.9598 9.6272 29.7526 8.93387 29.3953 8.31601C29.0379 7.69815 28.5405 7.17311 27.9429 6.78329ZM26.5453 21.483C26.5133 22.0318 26.3533 22.5654 26.0781 23.041C25.803 23.5167 25.4202 23.9211 24.9606 24.222L16.5748 29.0694C16.0849 29.317 15.5438 29.446 14.9951 29.446C14.4463 29.446 13.9052 29.317 13.4154 29.0694L5.03939 24.222C4.57978 23.9211 4.19705 23.5167 3.92189 23.041C3.64669 22.5654 3.4867 22.0318 3.45473 21.483V11.7982C3.4867 11.2494 3.64669 10.7158 3.92189 10.2402C4.19705 9.7645 4.57978 9.36001 5.03939 9.05917L13.4055 4.21182C13.8953 3.96418 14.4364 3.83514 14.9852 3.83514C15.534 3.83514 16.0751 3.96418 16.565 4.21182L24.9508 9.05917C25.4122 9.35893 25.7969 9.76295 26.0738 10.2387C26.3507 10.7144 26.5122 11.2486 26.5453 11.7982V21.483ZM9.1253 16.6167C9.12872 15.1933 9.68194 13.8211 10.6792 12.7622C11.6765 11.7033 13.0479 11.0321 14.5312 10.8769V6.56247C14.3062 6.60709 14.0897 6.68453 13.8893 6.79206L6.92883 10.6186C6.5505 10.86 6.23592 11.1817 6.00975 11.5584C5.78353 11.9352 5.65186 12.3567 5.625 12.7901V20.4432C5.62809 20.664 5.66522 20.8832 5.7353 21.0937L9.64688 18.9413C9.30483 18.2096 9.12717 17.4178 9.1253 16.6167ZM15 22.6584C14.0876 22.6624 13.1872 22.4414 12.3727 22.0134C11.5583 21.5854 10.853 20.9627 10.3147 20.1962L6.5625 22.4382C6.70528 22.6094 6.87431 22.7548 7.0628 22.8685L13.7397 26.872C14.1299 27.0794 14.5618 27.1875 15 27.1875C15.4382 27.1875 15.8701 27.0794 16.2603 26.872L22.9372 22.8685C23.1257 22.7548 23.2947 22.6094 23.4375 22.4382L19.695 20.1562C19.1598 20.9314 18.4548 21.5627 17.6383 21.9978C16.8218 22.433 15.9174 22.6594 15 22.6584ZM16.5456 6.79192L23.1398 10.6159C23.4994 10.8581 23.7982 11.1811 24.0126 11.5594C24.2269 11.9377 24.351 12.3609 24.375 12.7956V20.4437C24.3721 20.6643 24.3369 20.8833 24.2705 21.0937L20.5648 18.9427C20.9261 18.1116 21.0884 17.2068 21.0386 16.3011C20.9888 15.3954 20.7284 14.5141 20.2782 13.7282C19.828 12.9423 19.2007 12.2737 18.4468 11.7763C17.6928 11.2789 16.8333 10.9666 15.9375 10.8645V6.56247C16.1507 6.60704 16.3559 6.68443 16.5456 6.79192ZM11.4922 18.8542C11.0287 18.1989 10.7812 17.4286 10.7812 16.6406C10.7812 15.5839 11.2257 14.5705 12.0169 13.8232C12.8081 13.076 13.8811 12.6562 15 12.6562C15.8344 12.6562 16.6501 12.8899 17.3438 13.3277C18.0376 13.7655 18.5783 14.3878 18.8976 15.1158C19.2169 15.8439 19.3005 16.645 19.1377 17.4179C18.9749 18.1908 18.5731 18.9008 17.9831 19.458C17.3931 20.0152 16.6414 20.3947 15.8231 20.5484C15.0047 20.7021 14.1564 20.6232 13.3856 20.3217C12.6147 20.0201 11.9558 19.5094 11.4922 18.8542Z" fill="url(#paint0_linear_48_25)"/>
<defs>
<linearGradient id="paint0_linear_48_25" x1="-6" y1="11" x2="21.7085" y2="1.34227" gradientUnits="userSpaceOnUse">
<stop stop-color="#D450B3"/>
<stop offset="0.884823" stop-color="#07ADF4"/>
<stop offset="1" stop-color="#2DF2FF"/>
</linearGradient>
</defs>
</svg>
