<svg width="138" height="26" viewBox="0 0 138 26" fill="none" xmlns="http://www.w3.org/2000/svg">
<path d="M47.018 14.2166H52.1598C52.8828 14.2166 53.4686 14.8094 53.4686 15.5331C53.4686 16.2569 52.8828 16.8497 52.1598 16.8497H45.9585C45.8588 16.8497 45.7653 16.8871 45.6967 16.9495L43.827 18.5655C43.5403 18.8151 43.7148 19.283 44.0887 19.283H51.8482C51.8482 19.283 51.8544 19.283 51.8544 19.2768C51.8544 19.2705 51.8606 19.2705 51.8606 19.2705C51.9604 19.2768 52.0539 19.283 52.1598 19.283C54.2165 19.283 55.8868 17.6046 55.8868 15.5331C55.8868 13.5677 54.3848 11.9517 52.4652 11.7958C52.4652 11.7958 52.459 11.7958 52.459 11.7895C52.459 11.7833 52.459 11.7833 52.4527 11.7833H46.9183C46.1953 11.7833 45.6095 11.1905 45.6095 10.4668C45.6095 9.73677 46.1953 9.15027 46.9183 9.15027H53.1071C53.2069 9.15027 53.3066 9.11283 53.3814 9.0442L55.1202 7.42821C55.3945 7.17863 55.2137 6.71692 54.846 6.71692H47.0242C46.9931 6.71692 46.9557 6.71692 46.9245 6.71692C44.8678 6.71692 43.1975 8.39531 43.1975 10.4668C43.1975 12.5383 44.8678 14.2166 46.9245 14.2166C46.9557 14.2166 46.9868 14.2166 47.018 14.2166Z" fill="white"/>
<path d="M76.9527 6.71069C76.7283 6.71069 76.5475 6.89163 76.5475 7.12249V18.8775C76.5475 19.1021 76.7283 19.2892 76.9527 19.2892H86.3637C86.4759 19.2892 86.5819 19.2393 86.6629 19.1582L87.8408 17.8916C88.0839 17.6296 87.9031 17.2053 87.5417 17.2053H79.3272C79.1029 17.2053 78.9221 17.0244 78.9221 16.7935V7.12249C78.9221 6.89787 78.7414 6.71069 78.517 6.71069H76.9527Z" fill="white"/>
<path fill-rule="evenodd" clip-rule="evenodd" d="M61.8825 6.71069C61.8825 6.71693 61.8762 6.71693 61.8825 6.71069C60.6796 6.76685 59.7136 7.73395 59.6575 8.93815V16.8434C59.6575 16.8746 59.6575 16.9121 59.6575 16.9432C59.6575 18.1974 60.6422 19.2206 61.8825 19.2705H70.421C71.655 19.2144 72.646 18.1911 72.646 16.9432C72.646 16.9121 72.646 16.8746 72.646 16.8434V8.94438C72.5961 7.74019 71.6301 6.76685 70.4272 6.71693H61.8825V6.71069ZM63.4718 8.94438C62.7176 8.97558 62.1131 9.58704 62.0819 10.3482V15.321C62.0819 15.3397 62.0819 15.3647 62.0819 15.3834C62.0819 16.1696 62.6989 16.8185 63.4718 16.8497H68.8255C69.5983 16.8185 70.2153 16.1696 70.2153 15.3834C70.2153 15.3647 70.2153 15.3397 70.2153 15.321V10.3482C70.1842 9.58704 69.5796 8.98182 68.8255 8.94438H63.4718Z" fill="white"/>
<path fill-rule="evenodd" clip-rule="evenodd" d="M101.521 18.8774C101.521 19.102 101.702 19.2892 101.926 19.2892H103.522C103.746 19.2892 103.927 19.1083 103.927 18.8774V9.15025C103.927 9.11906 103.927 9.08162 103.927 9.05042C103.927 7.79631 102.948 6.77306 101.727 6.72314H93.5311C93.4999 6.72314 93.4625 6.72314 93.4313 6.72314C92.1599 6.72314 91.1315 7.76512 91.1315 9.05666C91.1315 9.08786 91.1315 9.1253 91.1315 9.15649V18.8837C91.1315 19.1083 91.3123 19.2955 91.5366 19.2955H93.1322C93.3565 19.2955 93.5373 19.1145 93.5373 18.8837V14.8343C93.5373 14.6097 93.718 14.4225 93.9424 14.4225H101.135C101.359 14.4225 101.54 14.6035 101.54 14.8343V18.8774H101.521ZM93.5186 12.1826V10.161C93.5186 9.37487 94.1481 8.73846 94.9209 8.73846H100.119C100.892 8.73846 101.521 9.37487 101.521 10.161V12.1826C101.521 12.4072 101.34 12.5944 101.116 12.5944H93.9237C93.6993 12.5944 93.5186 12.4134 93.5186 12.1826Z" fill="white"/>
<path fill-rule="evenodd" clip-rule="evenodd" d="M135.208 19.2892C134.983 19.2892 134.803 19.1083 134.803 18.8774V14.8281C134.803 14.6035 134.622 14.4163 134.398 14.4163H127.124C126.9 14.4163 126.719 14.5972 126.719 14.8281V18.8774C126.719 19.1021 126.538 19.2892 126.314 19.2892H124.706C124.482 19.2892 124.301 19.1083 124.301 18.8774V9.15027C124.301 9.11907 124.301 9.08164 124.301 9.05044C124.301 7.76513 125.342 6.71692 126.626 6.71692C126.657 6.71692 126.694 6.71692 126.725 6.71692H135.015C136.249 6.77307 137.24 7.79633 137.24 9.0442C137.24 9.0754 137.24 9.11284 137.24 9.14403V18.8712C137.24 19.0958 137.059 19.283 136.834 19.283H135.208V19.2892ZM126.713 10.161V12.1826C126.713 12.4072 126.894 12.5944 127.118 12.5944H134.391C134.616 12.5944 134.796 12.4135 134.796 12.1826V10.161C134.796 9.37489 134.161 8.73847 133.382 8.73847H128.128C127.349 8.73847 126.713 9.37489 126.713 10.161Z" fill="white"/>
<path d="M109.929 6.71069C110.047 6.71069 110.159 6.76061 110.234 6.8542L117.389 15.3959C117.632 15.6829 118.1 15.5082 118.1 15.1276V7.12249C118.1 6.89787 118.28 6.71069 118.505 6.71069H120.1C120.325 6.71069 120.505 6.89163 120.505 7.12249V18.8774C120.505 19.1021 120.325 19.2892 120.1 19.2892H118.118C118.112 19.2892 118.106 19.283 118.106 19.2767C118.106 19.2705 118.106 19.2705 118.1 19.2643L110.82 10.785C110.577 10.498 110.11 10.6789 110.11 11.0533V18.8837C110.11 19.1083 109.929 19.2955 109.704 19.2955H108.096C107.872 19.2955 107.691 19.1145 107.691 18.8837V7.12249C107.691 6.89787 107.872 6.71069 108.096 6.71069H109.929V6.71069Z" fill="white"/>
<path d="M6.08922 19.7198C6.28866 19.5201 6.55665 19.4078 6.83712 19.4078H32.7954C33.2691 19.4078 33.506 19.9819 33.1694 20.3125L28.0401 25.4413C27.8406 25.641 27.5726 25.7533 27.2922 25.7533H1.34006C0.866387 25.7533 0.629553 25.1793 0.966107 24.8486L6.08922 19.7198Z" fill="url(#paint0_linear_29_2)"/>
<path d="M6.08922 0.552447C6.28866 0.352787 6.55665 0.240479 6.83712 0.240479H32.7954C33.2691 0.240479 33.506 0.8145 33.1694 1.14519L28.0401 6.27394C27.8406 6.4736 27.5726 6.58591 27.2922 6.58591H1.34006C0.866387 6.58591 0.629553 6.01189 0.966107 5.6812L6.08922 0.552447Z" fill="url(#paint1_linear_29_2)"/>
<path d="M28.0401 10.0737C27.8406 9.87403 27.5726 9.76172 27.2922 9.76172H1.34006C0.866387 9.76172 0.629553 10.3357 0.966107 10.6664L6.09545 15.7952C6.29489 15.9948 6.56289 16.1072 6.84335 16.1072H32.8017C33.2753 16.1072 33.5122 15.5331 33.1756 15.2024L28.0401 10.0737Z" fill="url(#paint2_linear_29_2)"/>
<defs>
<linearGradient id="paint0_linear_29_2" x1="30.317" y1="-2.82409" x2="12.3222" y2="31.6052" gradientUnits="userSpaceOnUse">
<stop stop-color="#00FFA3"/>
<stop offset="1" stop-color="#DC1FFF"/>
</linearGradient>
<linearGradient id="paint1_linear_29_2" x1="22.4623" y1="-6.92944" x2="4.4675" y2="27.4998" gradientUnits="userSpaceOnUse">
<stop stop-color="#00FFA3"/>
<stop offset="1" stop-color="#DC1FFF"/>
</linearGradient>
<linearGradient id="paint2_linear_29_2" x1="26.3646" y1="-4.88988" x2="8.36984" y2="29.5394" gradientUnits="userSpaceOnUse">
<stop stop-color="#00FFA3"/>
<stop offset="1" stop-color="#DC1FFF"/>
</linearGradient>
</defs>
</svg>
